<?xml version="1.0" encoding="UTF-8"?>
<svg width="34px" height="34px" viewBox="-1 0 34 31" version="1.1" xmlns="http://www.w3.org/2000/svg" xmlns:xlink="http://www.w3.org/1999/xlink" stroke-width="1.25" stroke="#000000" fill="none">
    <path id="head" d="M3.98,18.30 L1.67,18.30 C0.75,18.30 -1.138e-13,17.55 -1.138e-13,16.63 C-1.138e-13,16.38 0.05,16.14 0.15,15.92 L4.87,7.10 C7.68,1.99 12.54,0 17.30,0 C25.48,-0 32.10,6.62 32.10,14.79 C32.10,22.96 25.48,29.58 17.31,29.58 C13.49,29.58 9.81,28.11 7.06,25.464" stroke-linecap="square"></path>
    <path id="eye" transform="translate(10, 10.32)" d="M1.24,1 C0.80,1 0.46,1.35 0.46,1.79 C0.46,1.79 0.46,1.79 0.46,1.79 C0.48,2.23 0.84,2.57 1.27,2.58 C1.71,2.57 2.06,2.21 2.05,1.77 L2.05,1.77 C2.03,1.35 1.69,1 1.27,0.99" fill="#000000"></path>
    <polyline id="upperlip" points="11.18 21.34 3.98 21.34 3.98 18.30"></polyline>
    <line id="lowerlip" x1="7.09" y1="25.42" x2="11.18" y2="21.34" stroke-linecap="round"></line>
</svg>
