<?xml version="1.0" encoding="UTF-8"?>
<svg width="39px" height="30px" viewBox="0 0 39 30" version="1.1" xmlns="http://www.w3.org/2000/svg" xmlns:xlink="http://www.w3.org/1999/xlink">
    <!-- Generator: Sketch 59.1 (86144) - https://sketch.com -->
    <title>Group@1x</title>
    <desc>Created with Sketch.</desc>
    <g id="Page-1" stroke="none" stroke-width="1" fill="none" fill-rule="evenodd">
        <g id="Acr173651137319424835489" stroke="#000000" stroke-width="1.25">
            <g id="Group" transform="translate(1.000000, 1.000000)">
                <path d="M12.1743,19.4785 C14.4153,19.4785 16.2323,21.2955 16.2323,23.5365 C16.2323,25.7775 14.4153,27.5945 12.1743,27.5945 C9.9333,27.5945 8.1163,25.7775 8.1163,23.5365 C8.1163,21.2955 9.9333,19.4785 12.1743,19.4785 Z" id="Stroke-1" stroke-linecap="round" stroke-linejoin="round"></path>
                <path d="M30.03,19.4785 C32.271,19.4785 34.088,21.2955 34.088,23.5365 C34.088,25.7775 32.271,27.5945 30.03,27.5945 C27.789,27.5945 25.972,25.7775 25.972,23.5365 C25.972,21.2955 27.789,19.4785 30.03,19.4785 Z" id="Stroke-3" stroke-linecap="round" stroke-linejoin="round"></path>
                <polyline id="Stroke-5" stroke-linecap="square" points="12.9859 16.232 12.9859 -2.84217094e-14 37.3349 -2.84217094e-14 37.3349 22.725 34.0879 22.725"></polyline>
                <line x1="16.2324" y1="22.725" x2="25.9714" y2="22.725" id="Stroke-7" stroke-linecap="square"></line>
                <path d="M7.2855,24.3482 L0.0005,24.3482 L0.0005,12.9852 C4.7385,5.9862 2.9075,6.4922 6.4925,6.4922 L12.9855,6.4922" id="Stroke-9" stroke-linecap="square"></path>
                <line x1="0" y1="21.1018" x2="8.116" y2="21.1018" id="Stroke-11" stroke-linecap="square"></line>
                <path d="M0,13.7972 L6.493,13.7972 C7.389,13.7972 8.116,13.0702 8.116,12.1742 L8.116,6.4922" id="Stroke-13" stroke-linecap="square"></path>
            </g>
        </g>
    </g>
</svg>