<?xml version="1.0" encoding="UTF-8"?>
<svg width="33px" height="34px" viewBox="0 0 33 34" version="1.1" xmlns="http://www.w3.org/2000/svg" xmlns:xlink="http://www.w3.org/1999/xlink">
    <!-- Generator: Sketch 59.1 (86144) - https://sketch.com -->
    <title>Group</title>
    <desc>Created with Sketch.</desc>
    <g id="Page-1" stroke="none" stroke-width="1" fill="none" fill-rule="evenodd" stroke-linecap="round" stroke-linejoin="round">
        <g id="Acr173651137319424-950093" stroke="#000000" stroke-width="1.25">
            <g id="Group" transform="translate(1.000000, 1.000000)">
                <path d="M4.893,32.1537 L16.776,13.2807 C17.366,12.5087 18.471,12.3617 19.243,12.9527 C19.367,13.0467 19.477,13.1577 19.572,13.2807 L31.454,32.1537 L4.893,32.1537 Z" id="Stroke-1"></path>
                <path d="M4.893,32.1537 L0,32.1537 L4.893,24.4647 C5.235,24.0397 5.745,23.7847 6.291,23.7657 C6.836,23.7847 7.347,24.0397 7.689,24.4647 L8.598,26.2827" id="Stroke-3"></path>
                <path d="M11.1209,22.2616 L14.3969,25.0326 C14.9519,25.5016 15.7739,25.4666 16.2879,24.9526 L17.1849,24.0556 C17.7309,23.5096 18.6159,23.5096 19.1619,24.0556 L20.0599,24.9526 C20.5739,25.4666 21.3959,25.5016 21.9509,25.0326 L25.2339,22.2616" id="Stroke-5"></path>
                <line x1="18.1737" y1="12.582" x2="18.1737" y2="5.68434189e-14" id="Stroke-7"></line>
                <path d="M18.1737,0.0003 L25.8627,0.0003 C26.2487,0.0003 26.5617,0.3133 26.5617,0.6993 L26.5617,6.2913 C26.5617,6.6773 26.2487,6.9903 25.8627,6.9903 L18.1737,6.9903" id="Stroke-9"></path>
                <path d="M26.5616,2.7962 L30.0566,2.7962 C30.4426,2.7962 30.7556,3.1092 30.7556,3.4952 L30.7556,9.0872 C30.7556,9.4732 30.4426,9.7862 30.0566,9.7862 L25.8626,9.7862 C25.4766,9.7862 25.1636,9.4732 25.1636,9.0872 L25.1636,6.9902" id="Stroke-11"></path>
            </g>
        </g>
    </g>
</svg>