<?xml version="1.0" encoding="UTF-8"?>
<svg width="34px" height="34px" viewBox="-1 -1 33 34" version="1.1" xmlns="http://www.w3.org/2000/svg" xmlns:xlink="http://www.w3.org/1999/xlink" stroke="#000000" stroke-width="1.25" fill="none" fill-rule="evenodd" stroke-linecap="round" stroke-linejoin="round">
    <path id="mountain" d="M4.89,32.15 L16.77,13.28 C17.36,12.50 18.47,12.36 19.24,12.95 C19.36,13.04 19.47,13.15 19.57,13.28 L31.45,32.15 L4.89,32.15 Z" ></path>
    <path id="hill" d="M4.89,32.15 L0,32.15 L4.89,24.46 C5.23,24.03 5.74,23.78 6.29,23.76 C6.83,23.78 7.34,24.03 7.68,24.46 L8.59,26.28" ></path>
    <path id="snowline" d="M11.12,22.26 L14.39,25.03 C14.95,25.50 15.77,25.46 16.28,24.95 L17.18,24.05 C17.73,23.50 18.61,23.50 19.16,24.05 L20.05,24.95 C20.57,25.46 21.39,25.50 21.95,25.03 L25.23,22.26" ></path>
    <line id="pole" x1="18.17" y1="12.582" x2="18.17" y2="5.689e-14" ></line>
    <path id="flag1" d="M18.17,0 L25.86,0 C26.24,0 26.56,0.31 26.56,0.69 L26.56,6.29 C26.56,6.67 26.24,6.99 25.86,6.99 L18.17,6.99" ></path>
    <path id="flag2" d="M26.56,2.79 L30.05,2.79 C30.44,2.79 30.75,3.10 30.75,3.49 L30.75,9.08 C30.75,9.47 30.44,9.78 30.05,9.78 L25.86,9.78 C25.47,9.78 25.16,9.47 25.16,9.08 L25.16,6.99"></path>
</svg>