<?xml version="1.0" encoding="UTF-8"?>
<svg width="34px" height="34px" viewBox="-1 -1 32 32" version="1.1" xmlns="http://www.w3.org/2000/svg" xmlns:xlink="http://www.w3.org/1999/xlink"
  stroke="#000000" stroke-width="1.25" fill="none" fill-rule="evenodd" stroke-linecap="square">
  <path d="M29.94,29.73 C29.94,26.23 27.10,23.40 23.60,23.40 C20.10,23.40 17.26,26.23 17.26,29.73 L29.94,29.73 Z"></path>
  <path d="M27.47,16.72 C27.47,18.86 25.74,20.59 23.60,20.59 C21.46,20.59 19.73,18.86 19.73,16.72 C19.73,14.58 21.46,12.85 23.60,12.85 C25.74,12.85 27.47,14.58 27.47,16.72 Z" ></path>
  <polyline points="15.62 20.25 9.88 20.25 9.88 16.57 2.844e-14 16.57 2.844e-14 29.73 17.26 29.73"></polyline>
  <polygon points="7.90 16.57 1.97 16.57 3.06 6.18 7.01 6.18"></polygon>
  <line x1="3.261" y1="10.41" x2="7.286" y2="10.41"></line>
  <path d="M5.27,3.16 C11.38,-5 17.48,5.86 23.59,0.44 C16.13,10.61 10.70,-0.24 5.27,3.16 Z"></path>
  <line x1="3.95" y1="25.20" x2="6" y2="25.20"></line>
  <line x1="10.10" y1="25.20" x2="12.16" y2="25.20"></line>
  <line x1="3.95" y1="21.10" x2="6" y2="21.10"></line>
</svg>