<?xml version="1.0" encoding="UTF-8"?>
<svg width="34px" height="34px" viewBox="-1 -1  34 35" version="1.1" xmlns="http://www.w3.org/2000/svg" xmlns:xlink="http://www.w3.org/1999/xlink"
    stroke="#000000" stroke-width="1.25" fill="none" fill-rule="evenodd" stroke-linecap="square">
    <path d="M7.08,9.91 C7.08,11.47 8.35,12.74 9.91,12.74 C11.47,12.74 12.74,11.47 12.74,9.91 C12.74,8.34 11.47,7.08 9.91,7.08 C8.35,7.08 7.08,8.34 7.08,9.91 Z" stroke-linecap="round" stroke-linejoin="round"></path>
    <line x1="0" y1="0" x2="9.2" y2="9.2"></line>
    <polyline points="2.85 3.67 3 14.58 20.74 32.32 32.16 20.90 14.45 3.19 3.48 2.84"></polyline>
    <line x1="16.95" y1="16.96" x2="15.72" y2="15.74"></line>
    <path d="M19,14.92 L16,17.90 C15.40,18.51 15.40,19.48 16,20.09 C16.45,20.54 17.12,20.67 17.70,20.41 L21.08,18.39 C21.86,18.04 22.77,18.39 23.12,19.17 C23.38,19.76 23.25,20.45 22.78,20.90 L19.80,23.88"></path>
    <line x1="23.06" y1="23.07" x2="21.83" y2="21.85"></line>
</svg>