<?xml version="1.0" encoding="UTF-8"?>
<svg width="34px" height="34px" viewBox="-1 -1 31 34" version="1.1" xmlns="http://www.w3.org/2000/svg" xmlns:xlink="http://www.w3.org/1999/xlink" fill="none" stroke="#000000" stroke-width="1.25">
    <line x1="14.64" y1="30.46" x2="14.64" y2="8.508"></line>
    <path d="M21.58,5.05 C19.53,6.65 17.19,7.82 14.68,8.50 C15.35,5.99 16.52,3.64 18.13,1.60 C20.27,-0.54 21.49,-0.21 22.45,0.73 C23.41,1.68 23.72,2.90 21.58,5.05 Z"></path>
    <path d="M7.70,5.05 C9.74,6.65 12.09,7.82 14.60,8.50 C13.93,5.99 12.75,3.64 11.15,1.60 C9.00,-0.54 7.79,-0.21 6.83,0.73 C5.87,1.68 5.55,2.90 7.70,5.05 Z"></path>
    <polygon points="2.44 31.46 26.83 31.46 26.83 16.82 2.44 16.82"></polygon>
    <polygon points="0 16.82 29.27 16.82 29.27 9.50 0 9.508"></polygon>
</svg>